<svg xmlns="http://www.w3.org/2000/svg" viewBox="0 0 35 35" width="35" height="35">
	<style>
		.shp1 { fill: #ca4549 }
		.shp0 { fill: none;stroke: #ca4549 } 
	</style>
	<g id="About Us">
		<g id="Social Media">
			<g id="Facebook">
				<path id="Path 1" class="shp1" transform="matrix(0.16,0,0,0.156,13,10)" d="M50 15.65L35.72 15.65C34.03 15.65 32.14 17.87 32.14 20.84L32.14 31.15L50 31.15L50 45.85L32.14 45.85L32.14 90L15.28 90L15.28 45.85L0 45.85L0 31.15L15.28 31.15L15.28 22.5C15.28 10.09 23.9 0 35.72 0L50 0L50 15.65Z" />
				<path id="Ellipse 2" class="shp0" d="M17 1C25.84 1 33 8.16 33 17C33 25.84 25.84 33 17 33C8.16 33 1 25.84 1 17C1 8.16 8.16 1 17 1Z" />
			</g>
		</g>
	</g>
</svg>