<svg xmlns="http://www.w3.org/2000/svg" viewBox="0 0 35 35" width="35" height="35">
	<style>
		.shp1 { fill: #666d89 }
		.shp0 { fill: none;stroke: #666d89 } 
	</style>
	<g id="About Us">
		<g id="Social Media">
			<g id="Facebook">
				<path id="Path 1" class="shp1" transform="matrix(0.152,0,0,0.16,10,11)" d="M92 9.08C88.61 10.58 84.98 11.6 81.16 12.06C85.06 9.72 88.05 6.02 89.46 1.61C85.81 3.77 81.77 5.35 77.47 6.19C74.03 2.52 69.12 0.23 63.69 0.23C53.27 0.23 44.82 8.68 44.82 19.11C44.82 20.59 44.99 22.03 45.31 23.41C29.62 22.62 15.71 15.11 6.4 3.69C4.78 6.48 3.85 9.72 3.85 13.18C3.85 19.72 7.18 25.5 12.24 28.89C9.15 28.79 6.24 27.94 3.69 26.53C3.69 26.6 3.69 26.68 3.69 26.76C3.69 35.91 10.2 43.54 18.83 45.27C17.25 45.7 15.58 45.93 13.86 45.93C12.65 45.93 11.46 45.82 10.31 45.6C12.71 53.09 19.69 58.55 27.94 58.7C21.48 63.77 13.35 66.78 4.5 66.78C2.98 66.78 1.48 66.69 0 66.52C8.35 71.87 18.27 75 28.93 75C63.65 75 82.64 46.24 82.64 21.29C82.64 20.48 82.62 19.66 82.58 18.85C86.27 16.19 89.47 12.87 92 9.08Z" />
				<path id="Ellipse 2" class="shp0" d="M17 1C25.84 1 33 8.16 33 17C33 25.84 25.84 33 17 33C8.16 33 1 25.84 1 17C1 8.16 8.16 1 17 1Z" />
			</g>
		</g>
	</g>
</svg>