<svg xmlns="http://www.w3.org/2000/svg" viewBox="0 0 35 35" width="35" height="35">
	<style>
		.shp1 { fill: #666d89 }
		.shp0 { fill: none;stroke: #666d89 } 
	</style>
	<g id="About Us">
		<g id="Social Media">
			<g id="Facebook">
				<path id="Path 1" class="shp1" transform="matrix(0.156,0,0,0.158,10,10)" d="M0.51 27.1L19.75 27.1L19.75 89L0.51 89L0.51 27.1ZM20.38 9.88C20.38 15.2 16.45 19.5 10 19.5C3.92 19.5 0 15.2 0 9.88C0 4.44 4.05 0.26 10.25 0.26C16.45 0.26 20.25 4.44 20.38 9.88ZM31.26 46.85C31.26 39.12 31.01 32.67 30.76 27.1L47.46 27.1L48.35 35.71L48.73 35.71C51.26 31.65 57.47 25.7 67.85 25.7C80.51 25.7 90 34.19 90 52.41L90 89L70.76 89L70.76 54.69C70.76 46.72 67.97 41.28 61.01 41.28C55.69 41.28 52.53 44.95 51.14 48.49C50.63 49.76 50.5 51.53 50.5 53.3L50.5 89L31.26 89L31.26 46.85Z" />
				<path id="Ellipse 2" class="shp0" d="M17 1C25.84 1 33 8.16 33 17C33 25.84 25.84 33 17 33C8.16 33 1 25.84 1 17C1 8.16 8.16 1 17 1Z" />
			</g>
		</g>
	</g>
</svg>