<svg xmlns="http://www.w3.org/2000/svg" viewBox="0 0 35 35" width="35" height="35">
	<style>
		.shp1 { fill: #666d89 }
		.shp0 { fill: none;stroke: #666d89 } 
	</style>
	<g id="About Us">
		<g id="Social Media">
			<g id="Facebook">
				<path id="Path 1" class="shp1" transform="matrix(0.156,0,0,0.159,10,10)" d="M89.61 34.41L89.61 43.91L74.61 43.91L74.61 58.91L65.11 58.91L65.11 43.91L50.11 43.91L50.11 34.41L65.11 34.41L65.11 19.41L74.61 19.41L74.61 34.41L89.61 34.41ZM28.01 0L51 0L51 0.5C51 3.07 46.38 3.56 43.23 3.99C42.17 4.14 40.02 4.37 39.42 4.68C45.24 7.78 46.18 12.67 46.18 19.96C46.18 28.25 42.94 32.63 39.49 35.71C37.36 37.62 35.68 39.12 35.68 41.12C35.68 43.09 37.98 45.11 40.65 47.45C45.02 51.29 51 56.54 51 65.36C51 74.49 47.07 81.03 39.33 84.79C33.37 87.69 26.94 88 24.45 88C23.98 88 23.71 87.99 23.66 87.99C23.66 87.99 23.48 87.99 23.18 87.99C19.31 87.99 0 87.1 0 69.52C0 52.23 21.02 50.89 27.47 50.89L27.64 50.89C23.92 45.92 24.69 40.91 24.69 40.91C24.36 40.93 23.88 40.95 23.3 40.95C20.87 40.95 16.19 40.56 12.17 37.97C7.25 34.8 4.75 29.41 4.75 21.94C4.75 0.86 27.78 0.01 28.01 0ZM27.21 55.39C26.7 55.39 26.19 55.41 25.67 55.45C21.27 55.77 17.22 57.42 14.27 60.09C11.37 62.72 9.88 66.03 10.1 69.4C10.54 76.43 18.09 80.56 27.26 79.89C36.3 79.23 42.31 74.04 41.87 67.01C41.46 60.38 35.71 55.39 27.21 55.39ZM23.61 6.24C22.96 6.24 22.31 6.33 21.69 6.5C19.09 7.23 17.03 9.41 15.88 12.63C14.71 15.9 14.62 19.3 15.64 23.19C17.47 30.12 22.39 35.15 27.37 35.15C28.02 35.15 28.67 35.06 29.29 34.89C34.72 33.36 38.12 25.06 35.87 17.13C33.48 8.72 29.62 6.24 23.61 6.24Z" />
				<path id="Ellipse 2" class="shp0" d="M17 1C25.84 1 33 8.16 33 17C33 25.84 25.84 33 17 33C8.16 33 1 25.84 1 17C1 8.16 8.16 1 17 1Z" />
			</g>
		</g>
	</g>
</svg>